<svg width="800" height="600" xmlns="http://www.w3.org/2000/svg" style="background: white;"><line x1="0" y1="300.0" x2="800" y2="300.0" stroke="gray" stroke-width="2" />
<line x1="400.0" y1="0" x2="400.0" y2="600" stroke="gray" stroke-width="2" />
<rect x="450.0" y="250.0" width="100" height="150" fill="blue" stroke="black" stroke-width="0" />
<circle cx="350.0" cy="300.0" r="50" fill="red" stroke="black" stroke-width="0" />
<text x="400.0" y="300.0" font-size="24" fill="black">Hello, SVG!</text>
<polyline points="200.0,-100.0 201.0,-96.00999999999999 202.0,-92.04000000000002 203.0,-88.09000000000003 204.0,-84.16000000000003 205.0,-80.25 206.0,-76.36000000000001 207.0,-72.49000000000001 208.0,-68.63999999999999 209.0,-64.81 210.0,-61.0 211.0,-57.20999999999998 212.0,-53.44 213.0,-49.69 214.0,-45.95999999999998 215.0,-42.25 216.0,-38.56 217.0,-34.889999999999986 218.0,-31.24000000000001 219.0,-27.610000000000014 220.0,-24.0 221.0,-20.410000000000025 222.0,-16.840000000000032 223.0,-13.29000000000002 224.0,-9.759999999999991 225.0,-6.25 226.0,-2.759999999999991 227.0,0.7099999999999795 228.0,4.159999999999968 229.0,7.589999999999975 230.0,11.0 231.0,14.389999999999986 232.0,17.75999999999999 233.0,21.110000000000014 234.0,24.439999999999998 235.0,27.75 236.0,31.04000000000002 237.0,34.31 238.0,37.56 239.0,40.79000000000002 240.0,44.0 241.0,47.19 242.0,50.359999999999985 243.0,53.50999999999999 244.0,56.639999999999986 245.0,59.75 246.0,62.84 247.0,65.91 248.0,68.96000000000001 249.0,71.99000000000001 250.0,75.0 251.0,77.99000000000001 252.0,80.96000000000001 253.0,83.91 254.0,86.84 255.0,89.75 256.0,92.63999999999999 257.0,95.50999999999999 258.0,98.35999999999999 259.0,101.19 260.0,104.0 261.0,106.78999999999999 262.0,109.56 263.0,112.31 264.0,115.03999999999999 265.0,117.75 266.0,120.44 267.0,123.10999999999999 268.0,125.75999999999999 269.0,128.39 270.0,131.0 271.0,133.59 272.0,136.16 273.0,138.71 274.0,141.24 275.0,143.75 276.0,146.24 277.0,148.71 278.0,151.16 279.0,153.59 280.0,156.0 281.0,158.39 282.0,160.76 283.0,163.10999999999999 284.0,165.44 285.0,167.75 286.0,170.04 287.0,172.31 288.0,174.56 289.0,176.79 290.0,179.0 291.0,181.19 292.0,183.36 293.0,185.51 294.0,187.64 295.0,189.75 296.0,191.84 297.0,193.91 298.0,195.95999999999998 299.0,197.99 300.0,200.0 301.0,201.99 302.0,203.95999999999998 303.0,205.91 304.0,207.84 305.0,209.75 306.0,211.64 307.0,213.51 308.0,215.36 309.0,217.19 310.0,219.0 311.0,220.79 312.0,222.56 313.0,224.31 314.0,226.04 315.0,227.75 316.0,229.44 317.0,231.11 318.0,232.76 319.0,234.39 320.0,236.0 321.0,237.59 322.0,239.16 323.0,240.71 324.0,242.24 325.0,243.75 326.0,245.24 327.0,246.71 328.0,248.16 329.0,249.59 330.0,251.0 331.0,252.39 332.0,253.76 333.0,255.11 334.0,256.44 335.0,257.75 336.0,259.04 337.0,260.31 338.0,261.56 339.0,262.79 340.0,264.0 341.0,265.19 342.0,266.36 343.0,267.51 344.0,268.64 345.0,269.75 346.0,270.84 347.0,271.91 348.0,272.96 349.0,273.99 350.0,275.0 351.0,275.99 352.0,276.96 353.0,277.91 354.0,278.84 355.0,279.75 356.0,280.64 357.0,281.51 358.0,282.36 359.0,283.19 360.0,284.0 361.0,284.79 362.0,285.56 363.0,286.31 364.0,287.04 365.0,287.75 366.0,288.44 367.0,289.11 368.0,289.76 369.0,290.39 370.0,291.0 371.0,291.59 372.0,292.16 373.0,292.71 374.0,293.24 375.0,293.75 376.0,294.24 377.0,294.71 378.0,295.16 379.0,295.59 380.0,296.0 381.0,296.39 382.0,296.76 383.0,297.11 384.0,297.44 385.0,297.75 386.0,298.04 387.0,298.31 388.0,298.56 389.0,298.79 390.0,299.0 391.0,299.19 392.0,299.36 393.0,299.51 394.0,299.64 395.0,299.75 396.0,299.84 397.0,299.91 398.0,299.96 399.0,299.99 400.0,300.0 401.0,299.99 402.0,299.96 403.0,299.91 404.0,299.84 405.0,299.75 406.0,299.64 407.0,299.51 408.0,299.36 409.0,299.19 410.0,299.0 411.0,298.79 412.0,298.56 413.0,298.31 414.0,298.04 415.0,297.75 416.0,297.44 417.0,297.11 418.0,296.76 419.0,296.39 420.0,296.0 421.0,295.59 422.0,295.16 423.0,294.71 424.0,294.24 425.0,293.75 426.0,293.24 427.0,292.71 428.0,292.16 429.0,291.59 430.0,291.0 431.0,290.39 432.0,289.76 433.0,289.11 434.0,288.44 435.0,287.75 436.0,287.04 437.0,286.31 438.0,285.56 439.0,284.79 440.0,284.0 441.0,283.19 442.0,282.36 443.0,281.51 444.0,280.64 445.0,279.75 446.0,278.84 447.0,277.91 448.0,276.96 449.0,275.99 450.0,275.0 451.0,273.99 452.0,272.96 453.0,271.91 454.0,270.84 455.0,269.75 456.0,268.64 457.0,267.51 458.0,266.36 459.0,265.19 460.0,264.0 461.0,262.79 462.0,261.56 463.0,260.31 464.0,259.04 465.0,257.75 466.0,256.44 467.0,255.11 468.0,253.76 469.0,252.39 470.0,251.0 471.0,249.59 472.0,248.16 473.0,246.71 474.0,245.24 475.0,243.75 476.0,242.24 477.0,240.71 478.0,239.16 479.0,237.59 480.0,236.0 481.0,234.39 482.0,232.76 483.0,231.11 484.0,229.44 485.0,227.75 486.0,226.04 487.0,224.31 488.0,222.56 489.0,220.79 490.0,219.0 491.0,217.19 492.0,215.36 493.0,213.51 494.0,211.64 495.0,209.75 496.0,207.84 497.0,205.91 498.0,203.95999999999998 499.0,201.99 500.0,200.0 501.0,197.99 502.0,195.95999999999998 503.0,193.91 504.0,191.84 505.0,189.75 506.0,187.64 507.0,185.51 508.0,183.36 509.0,181.19 510.0,179.0 511.0,176.79 512.0,174.56 513.0,172.31 514.0,170.04 515.0,167.75 516.0,165.44 517.0,163.10999999999999 518.0,160.76 519.0,158.39 520.0,156.0 521.0,153.59 522.0,151.16 523.0,148.71 524.0,146.24 525.0,143.75 526.0,141.24 527.0,138.71 528.0,136.16 529.0,133.59 530.0,131.0 531.0,128.39 532.0,125.75999999999999 533.0,123.10999999999999 534.0,120.44 535.0,117.75 536.0,115.03999999999999 537.0,112.31 538.0,109.56 539.0,106.78999999999999 540.0,104.0 541.0,101.19 542.0,98.35999999999999 543.0,95.50999999999999 544.0,92.63999999999999 545.0,89.75 546.0,86.84 547.0,83.91 548.0,80.96000000000001 549.0,77.99000000000001 550.0,75.0 551.0,71.99000000000001 552.0,68.96000000000001 553.0,65.91 554.0,62.84 555.0,59.75 556.0,56.639999999999986 557.0,53.50999999999999 558.0,50.359999999999985 559.0,47.19 560.0,44.0 561.0,40.79000000000002 562.0,37.56 563.0,34.31 564.0,31.04000000000002 565.0,27.75 566.0,24.439999999999998 567.0,21.110000000000014 568.0,17.75999999999999 569.0,14.389999999999986 570.0,11.0 571.0,7.589999999999975 572.0,4.159999999999968 573.0,0.7099999999999795 574.0,-2.759999999999991 575.0,-6.25 576.0,-9.759999999999991 577.0,-13.29000000000002 578.0,-16.840000000000032 579.0,-20.410000000000025 580.0,-24.0 581.0,-27.610000000000014 582.0,-31.24000000000001 583.0,-34.889999999999986 584.0,-38.56 585.0,-42.25 586.0,-45.95999999999998 587.0,-49.69 588.0,-53.44 589.0,-57.20999999999998 590.0,-61.0 591.0,-64.81 592.0,-68.63999999999999 593.0,-72.49000000000001 594.0,-76.36000000000001 595.0,-80.25 596.0,-84.16000000000003 597.0,-88.09000000000003 598.0,-92.04000000000002 599.0,-96.00999999999999 600.0,-100.0" fill="none" stroke="green" stroke-width="4" /></svg>