<svg width="800" height="600" xmlns="http://www.w3.org/2000/svg" style="background: lightyellow;">
    <line x1="0" y1="300.0" x2="800" y2="300.0" stroke="gray" stroke-width="2" />
    <line x1="400.0" y1="0" x2="400.0" y2="600" stroke="gray" stroke-width="2" />
    <polyline points="300.0,400.0 301.0,398.01 302.0,396.04 303.0,394.09000000000003 304.0,392.16 305.0,390.25000000000006 306.0,388.36 307.0,386.49000000000007 308.0,384.64000000000004 309.0,382.81000000000006 310.0,381.00000000000006 310.99999999999994,379.21000000000004 311.99999999999994,377.44000000000005 312.99999999999994,375.69000000000005 313.99999999999994,373.9600000000001 314.99999999999994,372.2500000000001 315.99999999999994,370.5600000000001 316.99999999999994,368.8900000000001 317.99999999999994,367.2400000000001 318.99999999999994,365.6100000000001 319.99999999999994,364.0000000000001 320.99999999999994,362.41000000000014 321.9999999999999,360.84000000000015 322.9999999999999,359.29000000000013 323.9999999999999,357.76000000000016 324.9999999999999,356.2500000000001 325.9999999999999,354.76000000000016 326.9999999999999,353.29000000000013 327.9999999999999,351.84000000000015 328.9999999999999,350.41000000000014 329.9999999999999,349.00000000000017 330.9999999999999,347.6100000000001 331.9999999999999,346.2400000000002 332.9999999999999,344.89000000000016 333.9999999999999,343.5600000000002 334.9999999999999,342.25000000000017 335.9999999999999,340.96000000000015 336.9999999999999,339.69000000000017 337.9999999999999,338.44000000000017 338.9999999999999,337.21000000000015 339.9999999999999,336.00000000000017 340.9999999999999,334.8100000000002 341.99999999999983,333.64000000000016 342.99999999999983,332.4900000000002 343.99999999999983,331.3600000000002 344.99999999999983,330.25000000000017 345.99999999999983,329.1600000000002 346.99999999999983,328.0900000000002 347.99999999999983,327.0400000000002 348.99999999999983,326.01000000000016 349.99999999999983,325.00000000000017 350.99999999999983,324.01000000000016 351.99999999999983,323.0400000000002 352.99999999999983,322.0900000000002 353.99999999999983,321.1600000000002 354.9999999999998,320.25000000000017 355.9999999999998,319.3600000000002 356.9999999999998,318.4900000000002 357.9999999999998,317.64000000000016 358.9999999999998,316.8100000000002 359.9999999999998,316.00000000000017 360.9999999999998,315.21000000000015 361.9999999999998,314.44000000000017 362.9999999999998,313.69000000000017 363.9999999999998,312.96000000000015 364.9999999999998,312.25000000000017 365.9999999999998,311.5600000000001 366.9999999999998,310.89000000000016 367.9999999999998,310.2400000000001 368.9999999999998,309.6100000000001 369.9999999999998,309.0000000000001 370.9999999999998,308.41000000000014 371.9999999999998,307.8400000000001 372.9999999999998,307.29000000000013 373.9999999999998,306.7600000000001 374.9999999999998,306.2500000000001 375.9999999999998,305.7600000000001 376.9999999999998,305.2900000000001 377.9999999999998,304.8400000000001 378.99999999999983,304.4100000000001 379.99999999999983,304.00000000000006 380.99999999999983,303.61000000000007 381.99999999999983,303.24000000000007 382.99999999999983,302.89000000000004 383.99999999999983,302.56000000000006 384.99999999999983,302.25000000000006 385.99999999999983,301.96000000000004 386.99999999999983,301.69000000000005 387.99999999999983,301.44000000000005 388.99999999999983,301.21000000000004 389.99999999999983,301.00000000000006 390.99999999999983,300.81000000000006 391.99999999999983,300.64000000000004 392.99999999999983,300.49 393.99999999999983,300.36 394.99999999999983,300.25 395.99999999999983,300.16 396.99999999999983,300.09000000000003 397.99999999999983,300.04 398.99999999999983,300.01 399.99999999999983,300.0 400.99999999999983,300.01 401.99999999999983,300.04 402.99999999999983,300.09 403.99999999999983,300.15999999999997 404.99999999999983,300.25 405.99999999999983,300.35999999999996 406.99999999999983,300.48999999999995 407.99999999999983,300.64 408.99999999999983,300.80999999999995 409.99999999999983,300.99999999999994 410.99999999999983,301.21 411.99999999999983,301.43999999999994 412.99999999999983,301.68999999999994 413.99999999999983,301.9599999999999 414.99999999999983,302.24999999999994 415.99999999999983,302.55999999999995 416.99999999999983,302.88999999999993 417.99999999999983,303.23999999999995 418.99999999999983,303.60999999999996 419.99999999999983,303.99999999999994 420.99999999999983,304.4099999999999 421.99999999999983,304.8399999999999 422.99999999999983,305.2899999999999 423.99999999999983,305.75999999999993 424.99999999999983,306.2499999999999 425.99999999999983,306.75999999999993 426.99999999999983,307.2899999999999 427.99999999999983,307.8399999999999 428.99999999999983,308.4099999999999 429.99999999999983,308.9999999999999 430.99999999999983,309.6099999999999 431.99999999999983,310.2399999999999 432.99999999999983,310.8899999999999 433.99999999999983,311.5599999999999 434.99999999999983,312.2499999999999 435.99999999999983,312.95999999999987 436.99999999999983,313.6899999999999 437.99999999999983,314.4399999999999 438.99999999999983,315.20999999999987 439.99999999999983,315.9999999999999 440.99999999999983,316.8099999999999 441.99999999999983,317.6399999999999 442.99999999999983,318.48999999999984 443.99999999999983,319.35999999999984 444.99999999999983,320.24999999999983 445.99999999999983,321.15999999999985 446.99999999999983,322.0899999999998 447.99999999999983,323.03999999999985 448.99999999999983,324.0099999999998 449.9999999999998,324.99999999999983 450.9999999999998,326.0099999999998 451.9999999999998,327.0399999999998 452.9999999999998,328.0899999999998 453.9999999999998,329.1599999999998 454.9999999999998,330.2499999999998 455.9999999999998,331.3599999999998 456.9999999999998,332.4899999999997 457.9999999999998,333.63999999999976 458.9999999999998,334.8099999999997 459.9999999999998,335.9999999999997 460.9999999999998,337.2099999999997 461.9999999999998,338.4399999999997 462.9999999999998,339.6899999999997 463.9999999999998,340.9599999999997 464.9999999999998,342.24999999999966 465.9999999999998,343.55999999999966 466.9999999999998,344.88999999999965 467.9999999999998,346.23999999999967 468.9999999999998,347.6099999999996 469.9999999999997,348.99999999999966 470.9999999999997,350.4099999999996 471.9999999999997,351.83999999999963 472.9999999999997,353.2899999999996 473.9999999999997,354.7599999999996 474.9999999999997,356.24999999999955 475.9999999999997,357.7599999999996 476.9999999999997,359.28999999999957 477.9999999999997,360.8399999999995 478.9999999999997,362.4099999999995 479.9999999999997,363.99999999999955 480.99999999999966,365.6099999999995 481.99999999999966,367.2399999999995 482.99999999999966,368.8899999999995 483.99999999999966,370.5599999999995 484.99999999999966,372.24999999999943 485.99999999999966,373.95999999999947 486.99999999999966,375.68999999999943 487.99999999999966,377.43999999999943 488.99999999999966,379.2099999999994 489.99999999999966,380.9999999999994 490.99999999999966,382.8099999999994 491.99999999999966,384.63999999999936 492.99999999999966,386.4899999999993 493.99999999999966,388.35999999999933 494.99999999999966,390.2499999999993 495.99999999999966,392.1599999999993 496.99999999999966,394.0899999999993 497.99999999999966,396.0399999999993 498.99999999999966,398.0099999999993 499.99999999999966,399.99999999999926" fill="none" stroke="green" stroke-width="1" />
    <polyline points="300.0,-700.0 301.0,-680.1 302.0,-660.4000000000002 303.0,-640.9000000000002 304.0,-621.6000000000003 305.0,-602.5000000000002 306.0,-583.6000000000004 307.0,-564.9000000000005 308.0,-546.4000000000005 309.0,-528.1000000000006 310.0,-510.0000000000007 310.99999999999994,-492.1000000000006 311.99999999999994,-474.40000000000066 312.99999999999994,-456.9000000000008 313.99999999999994,-439.6000000000008 314.99999999999994,-422.5000000000009 315.99999999999994,-405.60000000000105 316.99999999999994,-388.900000000001 317.99999999999994,-372.4000000000011 318.99999999999994,-356.10000000000116 319.99999999999994,-340.00000000000114 320.99999999999994,-324.10000000000116 321.9999999999999,-308.4000000000012 322.9999999999999,-292.9000000000012 323.9999999999999,-277.6000000000013 324.9999999999999,-262.50000000000136 325.9999999999999,-247.6000000000014 326.9999999999999,-232.90000000000146 327.9999999999999,-218.40000000000146 328.9999999999999,-204.10000000000144 329.9999999999999,-190.00000000000148 330.9999999999999,-176.1000000000015 331.9999999999999,-162.4000000000015 332.9999999999999,-148.90000000000157 333.9999999999999,-135.60000000000161 334.9999999999999,-122.50000000000165 335.9999999999999,-109.60000000000161 336.9999999999999,-96.90000000000168 337.9999999999999,-84.40000000000168 338.9999999999999,-72.10000000000173 339.9999999999999,-60.000000000001705 340.9999999999999,-48.10000000000173 341.99999999999983,-36.40000000000168 342.99999999999983,-24.90000000000174 343.99999999999983,-13.600000000001728 344.99999999999983,-2.500000000001762 345.99999999999983,8.399999999998215 346.99999999999983,19.099999999998204 347.99999999999983,29.599999999998204 348.99999999999983,39.899999999998215 349.99999999999983,49.99999999999824 350.99999999999983,59.899999999998215 351.99999999999983,69.59999999999823 352.99999999999983,79.09999999999823 353.99999999999983,88.39999999999822 354.9999999999998,97.49999999999824 355.9999999999998,106.39999999999827 356.9999999999998,115.09999999999826 357.9999999999998,123.59999999999826 358.9999999999998,131.89999999999827 359.9999999999998,139.9999999999983 360.9999999999998,147.89999999999833 361.9999999999998,155.59999999999837 362.9999999999998,163.09999999999843 363.9999999999998,170.3999999999985 364.9999999999998,177.49999999999855 365.9999999999998,184.39999999999858 366.9999999999998,191.09999999999863 367.9999999999998,197.5999999999987 368.9999999999998,203.89999999999873 369.9999999999998,209.99999999999878 370.9999999999998,215.89999999999884 371.9999999999998,221.59999999999886 372.9999999999998,227.09999999999891 373.9999999999998,232.39999999999895 374.9999999999998,237.499999999999 375.9999999999998,242.39999999999904 376.9999999999998,247.09999999999908 377.9999999999998,251.5999999999991 378.99999999999983,255.89999999999918 379.99999999999983,259.9999999999992 380.99999999999983,263.89999999999924 381.99999999999983,267.5999999999993 382.99999999999983,271.09999999999934 383.99999999999983,274.3999999999994 384.99999999999983,277.49999999999943 385.99999999999983,280.39999999999947 386.99999999999983,283.0999999999995 387.99999999999983,285.59999999999957 388.99999999999983,287.8999999999996 389.99999999999983,289.9999999999996 390.99999999999983,291.89999999999964 391.99999999999983,293.5999999999997 392.99999999999983,295.09999999999974 393.99999999999983,296.39999999999975 394.99999999999983,297.49999999999983 395.99999999999983,298.39999999999986 396.99999999999983,299.0999999999999 397.99999999999983,299.5999999999999 398.99999999999983,299.9 399.99999999999983,300.0 400.99999999999983,299.90000000000003 401.99999999999983,299.6000000000001 402.99999999999983,299.10000000000014 403.99999999999983,298.40000000000015 404.99999999999983,297.50000000000017 405.99999999999983,296.4000000000002 406.99999999999983,295.10000000000025 407.99999999999983,293.6000000000003 408.99999999999983,291.9000000000003 409.99999999999983,290.0000000000004 410.99999999999983,287.90000000000043 411.99999999999983,285.6000000000005 412.99999999999983,283.1000000000005 413.99999999999983,280.40000000000055 414.99999999999983,277.50000000000057 415.99999999999983,274.4000000000006 416.99999999999983,271.1000000000006 417.99999999999983,267.60000000000065 418.99999999999983,263.90000000000066 419.99999999999983,260.00000000000074 420.99999999999983,255.90000000000077 421.99999999999983,251.6000000000008 422.99999999999983,247.10000000000082 423.99999999999983,242.40000000000086 424.99999999999983,237.50000000000088 425.99999999999983,232.40000000000092 426.99999999999983,227.10000000000093 427.99999999999983,221.600000000001 428.99999999999983,215.900000000001 429.99999999999983,210.00000000000102 430.99999999999983,203.90000000000106 431.99999999999983,197.6000000000011 432.99999999999983,191.10000000000113 433.99999999999983,184.40000000000114 434.99999999999983,177.50000000000117 435.99999999999983,170.40000000000123 436.99999999999983,163.10000000000122 437.99999999999983,155.60000000000127 438.99999999999983,147.90000000000128 439.99999999999983,140.0000000000013 440.99999999999983,131.90000000000134 441.99999999999983,123.60000000000142 442.99999999999983,115.10000000000147 443.99999999999983,106.40000000000154 444.99999999999983,97.50000000000159 445.99999999999983,88.40000000000168 446.99999999999983,79.10000000000173 447.99999999999983,69.60000000000181 448.99999999999983,59.90000000000185 449.9999999999998,50.00000000000196 450.9999999999998,39.900000000002024 451.9999999999998,29.600000000002126 452.9999999999998,19.100000000002183 453.9999999999998,8.400000000002251 454.9999999999998,-2.4999999999976694 455.9999999999998,-13.599999999997578 456.9999999999998,-24.899999999997476 457.9999999999998,-36.39999999999736 458.9999999999998,-48.099999999997294 459.9999999999998,-59.999999999997215 460.9999999999998,-72.09999999999718 461.9999999999998,-84.39999999999708 462.9999999999998,-96.89999999999691 463.9999999999998,-109.5999999999969 464.9999999999998,-122.49999999999682 465.9999999999998,-135.59999999999667 466.9999999999998,-148.89999999999657 467.9999999999998,-162.39999999999645 468.9999999999998,-176.09999999999638 469.9999999999997,-189.9999999999963 470.9999999999997,-204.09999999999621 471.9999999999997,-218.399999999996 472.9999999999997,-232.899999999996 473.9999999999997,-247.59999999999582 474.9999999999997,-262.4999999999957 475.9999999999997,-277.5999999999956 476.9999999999997,-292.89999999999554 477.9999999999997,-308.39999999999543 478.9999999999997,-324.09999999999525 479.9999999999997,-339.9999999999952 480.99999999999966,-356.099999999995 481.99999999999966,-372.399999999995 482.99999999999966,-388.89999999999475 483.99999999999966,-405.5999999999947 484.99999999999966,-422.49999999999454 485.99999999999966,-439.59999999999445 486.99999999999966,-456.8999999999943 487.99999999999966,-474.3999999999942 488.99999999999966,-492.0999999999941 489.99999999999966,-509.99999999999386 490.99999999999966,-528.0999999999938 491.99999999999966,-546.3999999999936 492.99999999999966,-564.8999999999935 493.99999999999966,-583.5999999999934 494.99999999999966,-602.4999999999933 495.99999999999966,-621.5999999999931 496.99999999999966,-640.8999999999929 497.99999999999966,-660.3999999999928 498.99999999999966,-680.0999999999926 499.99999999999966,-699.9999999999925" fill="none" stroke="orange" stroke-width="1" />
    <polyline points="300.0,4300.0 301.0,4161.495000000001 302.0,4025.960000000001 303.0,3893.3650000000016 304.0,3763.680000000002 305.0,3636.8750000000023 306.0,3512.920000000003 307.0,3391.7850000000035 308.0,3273.440000000003 309.0,3157.855000000004 310.0,3045.0000000000045 310.99999999999994,2934.8450000000043 311.99999999999994,2827.360000000004 312.99999999999994,2722.515000000005 313.99999999999994,2620.2800000000047 314.99999999999994,2520.625000000005 315.99999999999994,2423.5200000000054 316.99999999999994,2328.935000000006 317.99999999999994,2236.840000000006 318.99999999999994,2147.205000000006 319.99999999999994,2060.0000000000064 320.99999999999994,1975.195000000006 321.9999999999999,1892.7600000000064 322.9999999999999,1812.6650000000063 323.9999999999999,1734.8800000000065 324.9999999999999,1659.3750000000066 325.9999999999999,1586.1200000000067 326.9999999999999,1515.0850000000066 327.9999999999999,1446.2400000000066 328.9999999999999,1379.5550000000067 329.9999999999999,1315.0000000000068 330.9999999999999,1252.5450000000067 331.9999999999999,1192.1600000000067 332.9999999999999,1133.8150000000066 333.9999999999999,1077.4800000000068 334.9999999999999,1023.1250000000067 335.9999999999999,970.7200000000067 336.9999999999999,920.2350000000065 337.9999999999999,871.6400000000065 338.9999999999999,824.9050000000063 339.9999999999999,780.0000000000063 340.9999999999999,736.8950000000062 341.99999999999983,695.5600000000061 342.99999999999983,655.9650000000058 343.99999999999983,618.0800000000057 344.99999999999983,581.8750000000057 345.99999999999983,547.3200000000054 346.99999999999983,514.3850000000053 347.99999999999983,483.0400000000053 348.99999999999983,453.255000000005 349.99999999999983,425.0000000000049 350.99999999999983,398.24500000000467 351.99999999999983,372.9600000000045 352.99999999999983,349.1150000000044 353.99999999999983,326.68000000000416 354.9999999999998,305.625000000004 355.9999999999998,285.92000000000377 356.9999999999998,267.53500000000366 357.9999999999998,250.44000000000338 358.9999999999998,234.60500000000314 359.9999999999998,220.00000000000298 360.9999999999998,206.5950000000027 361.9999999999998,194.36000000000246 362.9999999999998,183.2650000000022 363.9999999999998,173.28000000000196 364.9999999999998,164.37500000000176 365.9999999999998,156.52000000000155 366.9999999999998,149.6850000000013 367.9999999999998,143.8400000000011 368.9999999999998,138.9550000000009 369.9999999999998,135.0000000000007 370.9999999999998,131.94500000000056 371.9999999999998,129.76000000000033 372.9999999999998,128.4150000000002 373.9999999999998,127.88000000000005 374.9999999999998,128.1249999999999 375.9999999999998,129.11999999999975 376.9999999999998,130.83499999999958 377.9999999999998,133.23999999999944 378.99999999999983,136.30499999999932 379.99999999999983,139.9999999999992 380.99999999999983,144.2949999999991 381.99999999999983,149.15999999999903 382.99999999999983,154.56499999999892 383.99999999999983,160.47999999999882 384.99999999999983,166.87499999999872 385.99999999999983,173.71999999999866 386.99999999999983,180.9849999999986 387.99999999999983,188.6399999999985 388.99999999999983,196.65499999999844 389.99999999999983,204.9999999999984 390.99999999999983,213.64499999999836 391.99999999999983,222.5599999999983 392.99999999999983,231.71499999999827 393.99999999999983,241.07999999999822 394.99999999999983,250.62499999999818 395.99999999999983,260.3199999999982 396.99999999999983,270.1349999999982 397.99999999999983,280.03999999999814 398.99999999999983,290.0049999999981 399.99999999999983,299.9999999999981 400.99999999999983,309.99499999999813 401.99999999999983,319.9599999999981 402.99999999999983,329.86499999999813 403.99999999999983,339.6799999999982 404.99999999999983,349.3749999999982 405.99999999999983,358.9199999999982 406.99999999999983,368.28499999999826 407.99999999999983,377.4399999999983 408.99999999999983,386.35499999999837 409.99999999999983,394.9999999999984 410.99999999999983,403.34499999999844 411.99999999999983,411.35999999999854 412.99999999999983,419.0149999999986 413.99999999999983,426.2799999999987 414.99999999999983,433.12499999999875 415.99999999999983,439.51999999999884 416.99999999999983,445.434999999999 417.99999999999983,450.83999999999907 418.99999999999983,455.7049999999992 419.99999999999983,459.99999999999926 420.99999999999983,463.69499999999937 421.99999999999983,466.7599999999995 422.99999999999983,469.1649999999996 423.99999999999983,470.87999999999977 424.99999999999983,471.8749999999999 425.99999999999983,472.12 426.99999999999983,471.58500000000015 427.99999999999983,470.2400000000003 428.99999999999983,468.05500000000046 429.99999999999983,465.00000000000057 430.99999999999983,461.0450000000008 431.99999999999983,456.16000000000093 432.99999999999983,450.3150000000011 433.99999999999983,443.48000000000127 434.99999999999983,435.62500000000136 435.99999999999983,426.72000000000156 436.99999999999983,416.7350000000017 437.99999999999983,405.6400000000019 438.99999999999983,393.40500000000213 439.99999999999983,380.0000000000023 440.99999999999983,365.3950000000025 441.99999999999983,349.56000000000273 442.99999999999983,332.46500000000304 443.99999999999983,314.08000000000334 444.99999999999983,294.37500000000364 445.99999999999983,273.3200000000039 446.99999999999983,250.8850000000043 447.99999999999983,227.04000000000462 448.99999999999983,201.75500000000497 449.9999999999998,175.00000000000534 450.9999999999998,146.74500000000577 451.9999999999998,116.96000000000623 452.9999999999998,85.61500000000655 453.9999999999998,52.68000000000697 454.9999999999998,18.125000000007503 455.9999999999998,-18.07999999999197 456.9999999999998,-55.96499999999145 457.9999999999998,-95.55999999999102 458.9999999999998,-136.89499999999043 459.9999999999998,-179.99999999998977 460.9999999999998,-224.9049999999893 461.9999999999998,-271.6399999999886 462.9999999999998,-320.2349999999881 463.9999999999998,-370.7199999999874 464.9999999999998,-423.1249999999869 465.9999999999998,-477.4799999999859 466.9999999999998,-533.8149999999854 467.9999999999998,-592.1599999999844 468.9999999999998,-652.5449999999839 469.9999999999997,-714.9999999999831 470.9999999999997,-779.5549999999823 471.9999999999997,-846.2399999999814 472.9999999999997,-915.0849999999807 473.9999999999997,-986.1199999999799 474.9999999999997,-1059.374999999979 475.9999999999997,-1134.8799999999778 476.9999999999997,-1212.664999999977 477.9999999999997,-1292.7599999999761 478.9999999999997,-1375.194999999975 479.9999999999997,-1459.9999999999739 480.99999999999966,-1547.204999999973 481.99999999999966,-1636.8399999999722 482.99999999999966,-1728.9349999999708 483.99999999999966,-1823.51999999997 484.99999999999966,-1920.6249999999686 485.99999999999966,-2020.279999999968 486.99999999999966,-2122.514999999966 487.99999999999966,-2227.359999999965 488.99999999999966,-2334.844999999964 489.99999999999966,-2444.9999999999627 490.99999999999966,-2557.854999999961 491.99999999999966,-2673.4399999999596 492.99999999999966,-2791.7849999999585 493.99999999999966,-2912.9199999999564 494.99999999999966,-3036.874999999955 495.99999999999966,-3163.679999999954 496.99999999999966,-3293.3649999999525 497.99999999999966,-3425.959999999951 498.99999999999966,-3561.49499999995 499.99999999999966,-3699.9999999999477" fill="none" stroke="purple" stroke-width="1" />
    <polyline points="400.0,300.0 401.0,300.001 402.0,300.008 403.0,300.027 404.0,300.064 405.0,300.125 406.0,300.216 407.0,300.343 408.0,300.512 409.0,300.729 410.0,301.0 411.0,301.331 412.0,301.728 413.0,302.197 414.0,302.744 415.0,303.375 416.0,304.096 417.0,304.913 418.0,305.832 419.0,306.859 420.0,308.0 421.0,309.261 422.0,310.648 423.0,312.16700000000003 424.0,313.824 425.0,315.625 426.0,317.576 427.0,319.68300000000005 428.0,321.95200000000006 429.0,324.389 430.0,327.00000000000006 431.0,329.79100000000005 432.0,332.76800000000003 433.0,335.93700000000007 434.0,339.3040000000001 435.0,342.87500000000006 436.0,346.65600000000006 437.0,350.6530000000001 438.0,354.87200000000007 439.0,359.3190000000001 440.0,364.0000000000001 441.0,368.92100000000005 442.0,374.0880000000001 443.0,379.50700000000006 444.0,385.184 445.0,391.125 446.0,397.336 447.0,403.823 448.0,410.5919999999999 449.0,417.6489999999999 450.0,424.9999999999999 451.0,432.65099999999984 452.0,440.60799999999983 453.0,448.8769999999997 454.0,457.4639999999997 454.99999999999994,466.3749999999997 455.99999999999994,475.61599999999964 456.99999999999994,485.1929999999996 457.99999999999994,495.11199999999957 458.99999999999994,505.3789999999995 459.99999999999994,515.9999999999994 460.99999999999994,526.9809999999994 461.99999999999994,538.3279999999993 462.99999999999994,550.0469999999992 463.99999999999994,562.1439999999991 464.99999999999994,574.6249999999991 465.99999999999994,587.495999999999 466.9999999999999,600.762999999999 467.9999999999999,614.4319999999989 468.9999999999999,628.5089999999988 469.9999999999999,642.9999999999986 470.9999999999999,657.9109999999986 471.9999999999999,673.2479999999986 472.9999999999999,689.0169999999985 473.9999999999999,705.2239999999983 474.9999999999999,721.8749999999982 475.9999999999999,738.9759999999981 476.9999999999999,756.5329999999981 477.9999999999999,774.5519999999979 478.9999999999999,793.0389999999977 479.9999999999999,811.9999999999976 480.9999999999999,831.4409999999975 481.9999999999999,851.3679999999974 482.9999999999999,871.7869999999972 483.9999999999999,892.7039999999971 484.9999999999999,914.1249999999969 485.9999999999999,936.0559999999967 486.9999999999999,958.5029999999966 487.99999999999983,981.4719999999965 488.99999999999983,1004.9689999999963 489.99999999999983,1028.9999999999964 490.99999999999983,1053.5709999999958 491.99999999999983,1078.6879999999958 492.99999999999983,1104.3569999999954 493.99999999999983,1130.5839999999955 494.99999999999983,1157.3749999999952 495.99999999999983,1184.735999999995 496.99999999999983,1212.6729999999948 497.99999999999983,1241.1919999999946 498.9999999999998,1270.2989999999945 499.9999999999998,1299.999999999994" fill="none" stroke="red" stroke-width="1" />
    <text x="400.0" y="300.0" font-size="24" fill="black">Hello, SVG!</text>
</svg>